<svg id="Layer_1" data-name="Layer 1" xmlns="http://www.w3.org/2000/svg" viewBox="0 0 158.41 158.41">
  <title>cclover-logo</title>
  <g>
    <g>
      <path d="M74.52,78.34a16.73,16.73,0,0,1-1.47,6.47A23.76,23.76,0,0,1,60.33,97.1a29.1,29.1,0,0,1-11.45,2.09,39.85,39.85,0,0,1-9-.94,25.09,25.09,0,0,1-7.37-2.93,24.57,24.57,0,0,1-6.09-5.23,31.52,31.52,0,0,1-4.23-6.6,34.77,34.77,0,0,1-2.63-7.8,42.87,42.87,0,0,1-.87-8.81,39,39,0,0,1,2.2-13.54,28.77,28.77,0,0,1,6.3-10.24,27.55,27.55,0,0,1,9.62-6.47A31.14,31.14,0,0,1,48.54,34.4a29.42,29.42,0,0,1,13.55,3,24.47,24.47,0,0,1,9.1,7.5q3.16,4.47,3.16,8.44a5.51,5.51,0,0,1-1.54,3.85,4.86,4.86,0,0,1-3.72,1.66,5.12,5.12,0,0,1-3.65-1.15,15.92,15.92,0,0,1-2.71-4,19.2,19.2,0,0,0-5.84-7,14.21,14.21,0,0,0-8.27-2.31,15,15,0,0,0-12.45,5.94q-4.65,5.94-4.64,16.88a31.31,31.31,0,0,0,2,12.16,15.38,15.38,0,0,0,5.81,7.24,16,16,0,0,0,8.81,2.4,15.45,15.45,0,0,0,9.25-2.72,16.36,16.36,0,0,0,5.7-8,13.72,13.72,0,0,1,2-4A4.55,4.55,0,0,1,69,72.82a5.38,5.38,0,0,1,3.89,1.59A5.26,5.26,0,0,1,74.52,78.34Z" fill="#ef7e22"/>
      <path d="M139.31,78.34a16.73,16.73,0,0,1-1.47,6.47A23.76,23.76,0,0,1,125.12,97.1a29.1,29.1,0,0,1-11.45,2.09,39.85,39.85,0,0,1-9-.94,25,25,0,0,1-7.37-2.93,24.57,24.57,0,0,1-6.09-5.23A31.52,31.52,0,0,1,87,83.49a34.27,34.27,0,0,1-2.63-7.8,42.86,42.86,0,0,1-.88-8.81,39.2,39.2,0,0,1,2.2-13.54A28.93,28.93,0,0,1,92,43.1a27.51,27.51,0,0,1,9.61-6.47,31.23,31.23,0,0,1,11.76-2.23,29.37,29.37,0,0,1,13.54,3,24.51,24.51,0,0,1,9.11,7.5q3.17,4.47,3.16,8.44a5.51,5.51,0,0,1-1.54,3.85,4.86,4.86,0,0,1-3.72,1.66,5.12,5.12,0,0,1-3.65-1.15,15.92,15.92,0,0,1-2.71-4,19.2,19.2,0,0,0-5.84-7,14.24,14.24,0,0,0-8.27-2.31A15,15,0,0,0,101,50.43q-4.64,5.94-4.63,16.88a31.31,31.31,0,0,0,2.05,12.16,15.32,15.32,0,0,0,5.81,7.24,16,16,0,0,0,8.8,2.4,15.46,15.46,0,0,0,9.26-2.72,16.36,16.36,0,0,0,5.7-8,13.48,13.48,0,0,1,2-4,4.55,4.55,0,0,1,3.85-1.56,5.38,5.38,0,0,1,3.89,1.59A5.26,5.26,0,0,1,139.31,78.34Z" fill="#ef7e22"/>
    </g>
    <g>
      <path d="M19.16,142.63V105.57a5.78,5.78,0,0,1,1.14-3.88,3.89,3.89,0,0,1,3.08-1.31,4,4,0,0,1,3.13,1.3,5.54,5.54,0,0,1,1.19,3.89v37.06a5.54,5.54,0,0,1-1.2,3.89,4.05,4.05,0,0,1-3.12,1.3,3.87,3.87,0,0,1-3.05-1.34A5.7,5.7,0,0,1,19.16,142.63Z" fill="#ee7e22"/>
      <path d="M68.51,130.45a20.24,20.24,0,0,1-1.19,7A15.49,15.49,0,0,1,63.88,143a15.08,15.08,0,0,1-5.38,3.55,19,19,0,0,1-7,1.24,18.55,18.55,0,0,1-7-1.25,15.36,15.36,0,0,1-8.81-9.09,20,20,0,0,1-1.18-7,20.46,20.46,0,0,1,1.19-7.1,15.55,15.55,0,0,1,3.41-5.51,15,15,0,0,1,5.39-3.52,20.28,20.28,0,0,1,14,0,15.32,15.32,0,0,1,5.41,3.56,15.61,15.61,0,0,1,3.43,5.51A20.35,20.35,0,0,1,68.51,130.45Zm-8.57,0q0-5.22-2.3-8.13a7.5,7.5,0,0,0-6.18-2.92A7.72,7.72,0,0,0,47,120.7a8.29,8.29,0,0,0-2.94,3.84,15.56,15.56,0,0,0-1,5.91,15.41,15.41,0,0,0,1,5.85A8.32,8.32,0,0,0,47,140.14a7.58,7.58,0,0,0,4.46,1.33,7.48,7.48,0,0,0,6.18-2.93Q59.94,135.62,59.94,130.45Z" fill="#ee7e22"/>
      <path d="M80.43,118.4l6.92,19.41,7.45-20.25a12,12,0,0,1,1.72-3.46,3.14,3.14,0,0,1,2.57-1,3.88,3.88,0,0,1,2.77,1.1,3.41,3.41,0,0,1,1.14,2.53,5,5,0,0,1-.21,1.32,11.1,11.1,0,0,1-.47,1.41c-.17.43-.38.94-.61,1.5l-8.19,20.34c-.23.58-.53,1.33-.9,2.22a11,11,0,0,1-1.22,2.3,4.82,4.82,0,0,1-1.66,1.49,5,5,0,0,1-2.39.53,4.64,4.64,0,0,1-2.89-.83,5.59,5.59,0,0,1-1.6-1.81q-.51-1-1.74-3.9L73,121.16c-.19-.5-.38-1-.58-1.5a12.56,12.56,0,0,1-.5-1.54,5.3,5.3,0,0,1-.21-1.34,3.3,3.3,0,0,1,.53-1.74,4.27,4.27,0,0,1,1.48-1.41,4,4,0,0,1,2-.55,3.26,3.26,0,0,1,2.93,1.22A19.38,19.38,0,0,1,80.43,118.4Z" fill="#ee7e22"/>
      <path d="M132.13,132.55H115.42a11.34,11.34,0,0,0,1.17,5.13,8.14,8.14,0,0,0,3,3.35,8,8,0,0,0,4.18,1.13,10.26,10.26,0,0,0,2.8-.36,9.37,9.37,0,0,0,2.46-1.13,19.52,19.52,0,0,0,2.19-1.64c.66-.59,1.53-1.38,2.59-2.38a2.8,2.8,0,0,1,1.88-.57,3.14,3.14,0,0,1,2.13.72,2.59,2.59,0,0,1,.81,2,5.63,5.63,0,0,1-.9,2.71,10.88,10.88,0,0,1-2.74,3,15.51,15.51,0,0,1-4.6,2.36,19.72,19.72,0,0,1-6.37.94q-8.24,0-12.8-4.69t-4.57-12.74a21.32,21.32,0,0,1,1.13-7,15.4,15.4,0,0,1,3.28-5.55,14.3,14.3,0,0,1,5.32-3.55,19,19,0,0,1,7-1.24,16.7,16.7,0,0,1,8.59,2.11,13.93,13.93,0,0,1,5.37,5.46,14.38,14.38,0,0,1,1.78,6.83q0,3.22-1.84,4.17A11.48,11.48,0,0,1,132.13,132.55Zm-16.71-4.85h15.49c-.21-2.92-1-5.11-2.36-6.56a7.08,7.08,0,0,0-5.4-2.17,6.83,6.83,0,0,0-5.24,2.2A11,11,0,0,0,115.42,127.7Z" fill="#ee7e22"/>
    </g>
    <path d="M97.94,22.12a4.41,4.41,0,0,1,2.37-1.66h0l.48-.13a4.49,4.49,0,0,1,2.88.26A23.56,23.56,0,0,1,108,23.9c1.29,1.18,1.91,1.81,2.13,2.6.41,1.56-.54,2.62-2.1,3a4,4,0,0,1-2.38,0,5.42,5.42,0,0,0-4.86,1.29A4.1,4.1,0,0,1,98.67,32c-1.55.41-2.91,0-3.32-1.58-.22-.79,0-1.66.53-3.32A29.34,29.34,0,0,1,97.94,22.12Zm7.62-10c-.68-2.53-2.55-4.23-4.18-3.8S99,11.15,99.67,13.69s2.55,4.23,4.17,3.79S106.23,14.64,105.56,12.11ZM111,17.79c.36-2.1-.44-4-1.79-4.22s-2.73,1.28-3.09,3.38.44,4,1.78,4.22S110.58,19.89,111,17.79ZM98.71,13.94c-.68-2.53-2.54-4.23-4.17-3.79S92.15,13,92.83,15.52s2.54,4.23,4.17,3.8S99.39,16.48,98.71,13.94ZM91,23.14c1.37,1.63,3.32,2.25,4.37,1.38s.8-2.91-.56-4.55-3.32-2.25-4.37-1.38S89.64,21.5,91,23.14Z" fill="#69bf6b"/>
    <path d="M47.19,66.35a3.6,3.6,0,0,1,2.38-.09h0l.39.12a3.67,3.67,0,0,1,1.87,1.46A19.57,19.57,0,0,1,53.32,72a5.1,5.1,0,0,1,.3,2.75c-.4,1.26-1.53,1.56-2.79,1.16a3.32,3.32,0,0,1-1.66-1,3,3,0,0,0-1.81-1.12,3,3,0,0,0-2.12-.15,3.31,3.31,0,0,1-2-.12c-1.25-.4-2-1.31-1.59-2.57.21-.64.75-1.14,1.85-2A23.61,23.61,0,0,1,47.19,66.35Zm9.72-3.52c.66-2,.13-4.06-1.19-4.48s-2.91.9-3.58,2.95-.12,4,1.19,4.48S56.25,64.88,56.91,62.83Zm1.19,6.33c1.18-1.29,1.47-3,.64-3.71s-2.45-.33-3.64,1-1.47,2.95-.64,3.71S56.91,70.44,58.1,69.16Zm-6.73-8.11c.66-2,.13-4.06-1.19-4.48s-2.91.89-3.57,2.94-.13,4.06,1.18,4.48S50.71,63.1,51.37,61.05ZM42,64c.21,1.74,1.28,3,2.4,2.9S46.2,65.2,46,63.46s-1.29-3-2.4-2.9S41.74,62.22,42,64Z" fill="#69bf6b"/>
  </g>
</svg>
